# xmcd
# 
# Track frame offsets:
#     150
#     27105
#     67405
#     92645
#     120798
#     150523
#     172419
# 
# Disc length: 2675
# 
# Revision: 0
# Processed by: cddbd v1.5.2PL0 Copyright (c) Steve Scherf et al.
# Submitted via: fre:ac v1.0.17
# 
DISCID=550a7107
DTITLE=Aerosmith - 1980.01.25 Landover MD 2
DYEAR=0
DGENRE=
TTITLE0=Remember (Walking in the Sand)
TTITLE1=Lord Of The Thighs
TTITLE2=Same Old Song And Dance
TTITLE3=Milk Cow Blues
TTITLE4=Toys in the Attic
TTITLE5=Come Together
TTITLE6=Train Kept a Rollin'
EXTD=
EXTT0=
EXTT1=
EXTT2=
EXTT3=
EXTT4=
EXTT5=
EXTT6=
PLAYORDER=
